<svg width="22" height="17" viewBox="0 0 22 17" fill="none" xmlns="http://www.w3.org/2000/svg">
<path d="M17.9565 1.83C16.6265 1.21 15.1865 0.76 13.6865 0.5C13.6601 0.500376 13.635 0.511159 13.6165 0.53C13.4365 0.86 13.2265 1.29 13.0865 1.62C11.4955 1.38015 9.87753 1.38015 8.28652 1.62C8.14652 1.28 7.93652 0.86 7.74652 0.53C7.73652 0.51 7.70652 0.5 7.67652 0.5C6.17652 0.76 4.74652 1.21 3.40652 1.83C3.39652 1.83 3.38652 1.84 3.37652 1.85C0.656519 5.92 -0.0934814 9.88 0.276519 13.8C0.276519 13.82 0.286519 13.84 0.306519 13.85C2.10652 15.17 3.83652 15.97 5.54652 16.5C5.57652 16.51 5.60652 16.5 5.61652 16.48C6.01652 15.93 6.37652 15.35 6.68652 14.74C6.70652 14.7 6.68652 14.66 6.64652 14.65C6.07652 14.43 5.53652 14.17 5.00652 13.87C4.96652 13.85 4.96652 13.79 4.99652 13.76C5.10652 13.68 5.21652 13.59 5.32652 13.51C5.34652 13.49 5.37652 13.49 5.39652 13.5C8.83652 15.07 12.5465 15.07 15.9465 13.5C15.9665 13.49 15.9965 13.49 16.0165 13.51C16.1265 13.6 16.2365 13.68 16.3465 13.77C16.3865 13.8 16.3865 13.86 16.3365 13.88C15.8165 14.19 15.2665 14.44 14.6965 14.66C14.6565 14.67 14.6465 14.72 14.6565 14.75C14.9765 15.36 15.3365 15.94 15.7265 16.49C15.7565 16.5 15.7865 16.51 15.8165 16.5C17.5365 15.97 19.2665 15.17 21.0665 13.85C21.0865 13.84 21.0965 13.82 21.0965 13.8C21.5365 9.27 20.3665 5.34 17.9965 1.85C17.9865 1.84 17.9765 1.83 17.9565 1.83ZM7.20652 11.41C6.17652 11.41 5.31652 10.46 5.31652 9.29C5.31652 8.12 6.15652 7.17 7.20652 7.17C8.26652 7.17 9.10652 8.13 9.09652 9.29C9.09652 10.46 8.25652 11.41 7.20652 11.41ZM14.1765 11.41C13.1465 11.41 12.2865 10.46 12.2865 9.29C12.2865 8.12 13.1265 7.17 14.1765 7.17C15.2365 7.17 16.0765 8.13 16.0665 9.29C16.0665 10.46 15.2365 11.41 14.1765 11.41Z" fill="white"/>
</svg>
