<svg width="77" height="76" viewBox="0 0 77 76" fill="none" xmlns="http://www.w3.org/2000/svg">
<rect x="0.275391" y="0.139893" width="76.2777" height="75.641" rx="37.8205" fill="url(#paint0_linear_69_864)"/>
<rect x="0.775391" y="0.639893" width="75.2777" height="74.641" rx="37.3205" stroke="white" stroke-opacity="0.2"/>
<g clip-path="url(#clip0_69_864)">
<path d="M45.9142 54.2104C45.9142 54.5419 45.7825 54.8599 45.5481 55.0943C45.3137 55.3287 44.9957 55.4604 44.6642 55.4604H32.1642C31.8327 55.4604 31.5147 55.3287 31.2803 55.0943C31.0459 54.8599 30.9142 54.5419 30.9142 54.2104C30.9142 53.8789 31.0459 53.5609 31.2803 53.3265C31.5147 53.0921 31.8327 52.9604 32.1642 52.9604H44.6642C44.9957 52.9604 45.3137 53.0921 45.5481 53.3265C45.7825 53.5609 45.9142 53.8789 45.9142 54.2104ZM52.1642 34.2104C52.1696 36.2942 51.6988 38.3517 50.7879 40.2259C49.8769 42.1001 48.5499 43.7413 46.908 45.0245C46.6009 45.2598 46.3518 45.5622 46.1796 45.9086C46.0073 46.2549 45.9166 46.6361 45.9142 47.0229V47.9604C45.9142 48.6235 45.6508 49.2593 45.182 49.7282C44.7131 50.197 44.0772 50.4604 43.4142 50.4604H33.4142C32.7512 50.4604 32.1153 50.197 31.6464 49.7282C31.1776 49.2593 30.9142 48.6235 30.9142 47.9604V47.0229C30.9139 46.6407 30.8261 46.2637 30.6573 45.9207C30.4886 45.5778 30.2434 45.2782 29.9408 45.0448C28.303 43.7692 26.9768 42.1378 26.0626 40.274C25.1484 38.4102 24.6702 36.3629 24.6642 34.287C24.6236 26.8401 30.6423 20.6385 38.083 20.4604C39.9163 20.4162 41.74 20.7392 43.4466 21.4104C45.1533 22.0816 46.7084 23.0874 48.0205 24.3687C49.3326 25.6499 50.3752 27.1807 51.0868 28.8709C51.7984 30.5611 52.1647 32.3765 52.1642 34.2104ZM44.2986 34.576C44.1825 34.4598 44.0446 34.3676 43.8929 34.3047C43.7411 34.2418 43.5785 34.2094 43.4142 34.2094C43.2499 34.2094 43.0873 34.2418 42.9355 34.3047C42.7838 34.3676 42.6459 34.4598 42.5298 34.576L38.4142 38.6932L34.2986 34.576C34.064 34.3415 33.7459 34.2097 33.4142 34.2097C33.0825 34.2097 32.7644 34.3415 32.5298 34.576C32.2953 34.8106 32.1635 35.1287 32.1635 35.4604C32.1635 35.7921 32.2953 36.1102 32.5298 36.3448L37.1642 40.9776V46.7104C37.1642 47.0419 37.2959 47.3599 37.5303 47.5943C37.7647 47.8287 38.0827 47.9604 38.4142 47.9604C38.7457 47.9604 39.0637 47.8287 39.2981 47.5943C39.5325 47.3599 39.6642 47.0419 39.6642 46.7104V40.9776L44.2986 36.3448C44.4148 36.2287 44.507 36.0908 44.5699 35.9391C44.6328 35.7873 44.6652 35.6247 44.6652 35.4604C44.6652 35.2961 44.6328 35.1335 44.5699 34.9817C44.507 34.83 44.4148 34.6921 44.2986 34.576Z" fill="white"/>
</g>
<defs>
<linearGradient id="paint0_linear_69_864" x1="38.4142" y1="0.139893" x2="38.4142" y2="75.7809" gradientUnits="userSpaceOnUse">
<stop stop-color="#5B1CD4"/>
<stop offset="1" stop-color="#310F73"/>
</linearGradient>
<clipPath id="clip0_69_864">
<rect width="40" height="40" fill="white" transform="translate(18.4142 17.9604)"/>
</clipPath>
</defs>
</svg>
