<svg width="46" height="47" viewBox="0 0 46 47" fill="none" xmlns="http://www.w3.org/2000/svg">
<g filter="url(#filter0_i_69_449)">
<circle cx="23" cy="23.5127" r="22" fill="white" fill-opacity="0.02"/>
</g>
<circle cx="23" cy="23.5127" r="22.5" stroke="white" stroke-opacity="0.1"/>
<path d="M30.27 16.8427C28.94 16.2227 27.5 15.7727 26 15.5127C25.9736 15.5131 25.9485 15.5239 25.93 15.5427C25.75 15.8727 25.54 16.3027 25.4 16.6327C23.809 16.3928 22.191 16.3928 20.6 16.6327C20.46 16.2927 20.25 15.8727 20.06 15.5427C20.05 15.5227 20.02 15.5127 19.99 15.5127C18.49 15.7727 17.06 16.2227 15.72 16.8427C15.71 16.8427 15.7 16.8527 15.69 16.8627C12.97 20.9327 12.22 24.8927 12.59 28.8127C12.59 28.8327 12.6 28.8527 12.62 28.8627C14.42 30.1827 16.15 30.9827 17.86 31.5127C17.89 31.5227 17.92 31.5127 17.93 31.4927C18.33 30.9427 18.69 30.3627 19 29.7527C19.02 29.7127 19 29.6727 18.96 29.6627C18.39 29.4427 17.85 29.1827 17.32 28.8827C17.28 28.8627 17.28 28.8027 17.31 28.7727C17.42 28.6927 17.53 28.6027 17.64 28.5227C17.66 28.5027 17.69 28.5027 17.71 28.5127C21.15 30.0827 24.86 30.0827 28.26 28.5127C28.28 28.5027 28.31 28.5027 28.33 28.5227C28.44 28.6127 28.55 28.6927 28.66 28.7827C28.7 28.8127 28.7 28.8727 28.65 28.8927C28.13 29.2027 27.58 29.4527 27.01 29.6727C26.97 29.6827 26.96 29.7327 26.97 29.7627C27.29 30.3727 27.65 30.9527 28.04 31.5027C28.07 31.5127 28.1 31.5227 28.13 31.5127C29.85 30.9827 31.58 30.1827 33.38 28.8627C33.4 28.8527 33.41 28.8327 33.41 28.8127C33.85 24.2827 32.68 20.3527 30.31 16.8627C30.3 16.8527 30.29 16.8427 30.27 16.8427ZM19.52 26.4227C18.49 26.4227 17.63 25.4727 17.63 24.3027C17.63 23.1327 18.47 22.1827 19.52 22.1827C20.58 22.1827 21.42 23.1427 21.41 24.3027C21.41 25.4727 20.57 26.4227 19.52 26.4227ZM26.49 26.4227C25.46 26.4227 24.6 25.4727 24.6 24.3027C24.6 23.1327 25.44 22.1827 26.49 22.1827C27.55 22.1827 28.39 23.1427 28.38 24.3027C28.38 25.4727 27.55 26.4227 26.49 26.4227Z" fill="white"/>
<defs>
<filter id="filter0_i_69_449" x="0" y="0.512695" width="46" height="46" filterUnits="userSpaceOnUse" color-interpolation-filters="sRGB">
<feFlood flood-opacity="0" result="BackgroundImageFix"/>
<feBlend mode="normal" in="SourceGraphic" in2="BackgroundImageFix" result="shape"/>
<feColorMatrix in="SourceAlpha" type="matrix" values="0 0 0 0 0 0 0 0 0 0 0 0 0 0 0 0 0 0 127 0" result="hardAlpha"/>
<feOffset/>
<feGaussianBlur stdDeviation="10"/>
<feComposite in2="hardAlpha" operator="arithmetic" k2="-1" k3="1"/>
<feColorMatrix type="matrix" values="0 0 0 0 1 0 0 0 0 1 0 0 0 0 1 0 0 0 0.2 0"/>
<feBlend mode="normal" in2="shape" result="effect1_innerShadow_69_449"/>
</filter>
</defs>
</svg>
