<svg width="612" height="413" viewBox="0 0 612 413" fill="none" xmlns="http://www.w3.org/2000/svg">
<path d="M517.566 39.4776C478.861 21.4348 436.955 8.33927 393.303 0.772949C392.536 0.783883 391.804 1.09768 391.266 1.64599C386.028 11.2494 379.917 23.7629 375.843 33.3663C329.542 26.3864 282.457 26.3864 236.157 33.3663C232.083 23.4719 225.971 11.2494 220.442 1.64599C220.151 1.06397 219.278 0.772949 218.405 0.772949C174.753 8.33927 133.139 21.4348 94.1429 39.4776C93.8519 39.4776 93.5609 39.7686 93.2698 40.0596C14.1145 158.502 -7.71141 273.742 3.05604 387.819C3.05604 388.401 3.34705 388.983 3.92908 389.274C56.3113 427.688 106.656 450.969 156.42 466.393C157.293 466.684 158.166 466.393 158.457 465.811C170.097 449.805 180.574 432.926 189.595 415.174C190.177 414.01 189.595 412.846 188.431 412.555C171.843 406.153 156.128 398.587 140.705 389.856C139.541 389.274 139.541 387.528 140.414 386.655C143.615 384.327 146.816 381.708 150.017 379.38C150.599 378.798 151.472 378.798 152.054 379.089C252.163 424.778 360.128 424.778 459.072 379.089C459.654 378.798 460.527 378.798 461.109 379.38C464.31 381.999 467.512 384.327 470.713 386.946C471.877 387.819 471.877 389.565 470.422 390.147C455.289 399.169 439.283 406.444 422.696 412.846C421.532 413.137 421.241 414.592 421.532 415.465C430.844 433.217 441.321 450.096 452.67 466.102C453.543 466.393 454.416 466.684 455.289 466.393C505.343 450.969 555.688 427.688 608.07 389.274C608.653 388.983 608.944 388.401 608.944 387.819C621.748 255.991 587.7 141.623 518.73 40.0596C518.439 39.7686 518.148 39.4776 517.566 39.4776ZM204.728 318.267C174.753 318.267 149.726 290.621 149.726 256.573C149.726 222.524 174.171 194.878 204.728 194.878C235.575 194.878 260.02 222.815 259.729 256.573C259.729 290.621 235.284 318.267 204.728 318.267ZM407.563 318.267C377.589 318.267 352.562 290.621 352.562 256.573C352.562 222.524 377.007 194.878 407.563 194.878C438.41 194.878 462.855 222.815 462.564 256.573C462.564 290.621 438.41 318.267 407.563 318.267Z" fill="white"/>
</svg>
