<svg width="1440" height="650" viewBox="0 0 1440 650" fill="none" xmlns="http://www.w3.org/2000/svg">
<g clip-path="url(#clip0_313_340)">
<rect width="1440" height="650" fill="black"/>
<g opacity="0.5" filter="url(#filter0_f_313_340)">
<ellipse cx="744.653" cy="219.536" rx="415.058" ry="251.607" fill="#AF04FF"/>
</g>
<g opacity="0.5" filter="url(#filter1_f_313_340)">
<ellipse cx="1083.33" cy="174.513" rx="274.603" ry="166.464" fill="#E1E1E1"/>
</g>
<g opacity="0.5" filter="url(#filter2_f_313_340)">
<ellipse cx="432.655" cy="156.667" rx="274.603" ry="166.464" fill="#E1E1E1"/>
</g>
<g filter="url(#filter3_f_313_340)">
<ellipse cx="745.012" cy="235.443" rx="206.413" ry="124.568" fill="#E1E1E1"/>
</g>
<g filter="url(#filter4_f_313_340)">
<ellipse cx="1034.86" cy="196.184" rx="206.413" ry="124.568" fill="#E1E1E1"/>
</g>
<g filter="url(#filter5_f_313_340)">
<ellipse cx="484.742" cy="178.338" rx="206.413" ry="124.568" fill="#E1E1E1"/>
</g>
<g filter="url(#filter6_f_313_340)">
<ellipse cx="737.746" cy="233.312" rx="384.49" ry="248.046" fill="#5505FF" fill-opacity="0.65"/>
</g>
<g filter="url(#filter7_f_313_340)">
<ellipse cx="1252.37" cy="101.258" rx="384.49" ry="248.046" fill="#5505FF" fill-opacity="0.21"/>
</g>
<g filter="url(#filter8_f_313_340)">
<path d="M1122.24 222.605C1122.24 359.597 950.094 470.651 737.746 470.651C525.398 470.651 353.255 359.597 353.255 222.605C353.255 85.6134 525.398 -25.4404 737.746 -25.4404C950.094 -25.4404 1122.24 85.6134 1122.24 222.605Z" fill="#7305FF"/>
</g>
<g filter="url(#filter9_f_313_340)">
<ellipse cx="729.859" cy="255.32" rx="256.327" ry="110.639" fill="white"/>
</g>
<g filter="url(#filter10_f_313_340)">
<ellipse cx="1342.09" cy="179.776" rx="286.889" ry="184.993" fill="#5505FF" fill-opacity="0.25"/>
</g>
<g filter="url(#filter11_f_313_340)">
<ellipse cx="745.276" cy="184.031" rx="274.603" ry="166.464" fill="white"/>
</g>
<g filter="url(#filter12_f_313_340)">
<ellipse cx="720" cy="295.174" rx="394.349" ry="60.0782" fill="white"/>
</g>
<g filter="url(#filter13_f_313_340)">
<path d="M-267.665 173.439L-687.826 33.8271L-575.716 10.6573C-349.475 64.9179 121.792 183.063 196.936 221.561C290.866 269.682 765.567 244.73 1085.74 244.73C1341.87 244.73 1787.69 90.2659 1978.58 13.0337L2200.78 -138.46C2185.29 -40.6328 1992.11 176.647 1343.29 263.147C694.463 349.647 246.089 286.911 103.006 244.73L-267.665 173.439Z" fill="#7305FF"/>
</g>
<g filter="url(#filter14_f_313_340)">
<path d="M-267.665 173.439L-687.826 33.827L-575.716 10.6573C-349.475 64.9179 121.792 183.063 196.936 221.561C290.866 269.682 765.567 244.73 1085.74 244.73C1341.87 244.73 1787.69 90.2659 1978.58 13.0337L2200.78 -138.46C2185.29 -40.6328 1992.11 176.647 1343.29 263.147C694.463 349.647 246.089 286.911 103.006 244.73L-267.665 173.439Z" fill="white" fill-opacity="0.4"/>
</g>
<path d="M-885 -522.927C-251.691 481.511 1686.61 494.932 2325 -522.927H-885Z" fill="black"/>
</g>
<defs>
<filter id="filter0_f_313_340" x="202.288" y="-159.378" width="1084.73" height="757.829" filterUnits="userSpaceOnUse" color-interpolation-filters="sRGB">
<feFlood flood-opacity="0" result="BackgroundImageFix"/>
<feBlend mode="normal" in="SourceGraphic" in2="BackgroundImageFix" result="shape"/>
<feGaussianBlur stdDeviation="63.6534" result="effect1_foregroundBlur_313_340"/>
</filter>
<filter id="filter1_f_313_340" x="681.421" y="-119.258" width="803.819" height="587.541" filterUnits="userSpaceOnUse" color-interpolation-filters="sRGB">
<feFlood flood-opacity="0" result="BackgroundImageFix"/>
<feBlend mode="normal" in="SourceGraphic" in2="BackgroundImageFix" result="shape"/>
<feGaussianBlur stdDeviation="63.6534" result="effect1_foregroundBlur_313_340"/>
</filter>
<filter id="filter2_f_313_340" x="30.7459" y="-137.103" width="803.819" height="587.541" filterUnits="userSpaceOnUse" color-interpolation-filters="sRGB">
<feFlood flood-opacity="0" result="BackgroundImageFix"/>
<feBlend mode="normal" in="SourceGraphic" in2="BackgroundImageFix" result="shape"/>
<feGaussianBlur stdDeviation="63.6534" result="effect1_foregroundBlur_313_340"/>
</filter>
<filter id="filter3_f_313_340" x="427.289" y="-0.435486" width="635.445" height="471.757" filterUnits="userSpaceOnUse" color-interpolation-filters="sRGB">
<feFlood flood-opacity="0" result="BackgroundImageFix"/>
<feBlend mode="normal" in="SourceGraphic" in2="BackgroundImageFix" result="shape"/>
<feGaussianBlur stdDeviation="55.655" result="effect1_foregroundBlur_313_340"/>
</filter>
<filter id="filter4_f_313_340" x="701.139" y="-55.6916" width="667.439" height="503.75" filterUnits="userSpaceOnUse" color-interpolation-filters="sRGB">
<feFlood flood-opacity="0" result="BackgroundImageFix"/>
<feBlend mode="normal" in="SourceGraphic" in2="BackgroundImageFix" result="shape"/>
<feGaussianBlur stdDeviation="63.6534" result="effect1_foregroundBlur_313_340"/>
</filter>
<filter id="filter5_f_313_340" x="151.022" y="-73.5369" width="667.439" height="503.75" filterUnits="userSpaceOnUse" color-interpolation-filters="sRGB">
<feFlood flood-opacity="0" result="BackgroundImageFix"/>
<feBlend mode="normal" in="SourceGraphic" in2="BackgroundImageFix" result="shape"/>
<feGaussianBlur stdDeviation="63.6534" result="effect1_foregroundBlur_313_340"/>
</filter>
<filter id="filter6_f_313_340" x="167.879" y="-200.111" width="1139.73" height="866.845" filterUnits="userSpaceOnUse" color-interpolation-filters="sRGB">
<feFlood flood-opacity="0" result="BackgroundImageFix"/>
<feBlend mode="normal" in="SourceGraphic" in2="BackgroundImageFix" result="shape"/>
<feGaussianBlur stdDeviation="92.6883" result="effect1_foregroundBlur_313_340"/>
</filter>
<filter id="filter7_f_313_340" x="682.504" y="-332.164" width="1139.73" height="866.845" filterUnits="userSpaceOnUse" color-interpolation-filters="sRGB">
<feFlood flood-opacity="0" result="BackgroundImageFix"/>
<feBlend mode="normal" in="SourceGraphic" in2="BackgroundImageFix" result="shape"/>
<feGaussianBlur stdDeviation="92.6883" result="effect1_foregroundBlur_313_340"/>
</filter>
<filter id="filter8_f_313_340" x="167.879" y="-210.817" width="1139.73" height="866.845" filterUnits="userSpaceOnUse" color-interpolation-filters="sRGB">
<feFlood flood-opacity="0" result="BackgroundImageFix"/>
<feBlend mode="normal" in="SourceGraphic" in2="BackgroundImageFix" result="shape"/>
<feGaussianBlur stdDeviation="92.6883" result="effect1_foregroundBlur_313_340"/>
</filter>
<filter id="filter9_f_313_340" x="415.532" y="86.6807" width="628.654" height="337.278" filterUnits="userSpaceOnUse" color-interpolation-filters="sRGB">
<feFlood flood-opacity="0" result="BackgroundImageFix"/>
<feBlend mode="normal" in="SourceGraphic" in2="BackgroundImageFix" result="shape"/>
<feGaussianBlur stdDeviation="29" result="effect1_foregroundBlur_313_340"/>
</filter>
<filter id="filter10_f_313_340" x="869.82" y="-190.594" width="944.531" height="740.74" filterUnits="userSpaceOnUse" color-interpolation-filters="sRGB">
<feFlood flood-opacity="0" result="BackgroundImageFix"/>
<feBlend mode="normal" in="SourceGraphic" in2="BackgroundImageFix" result="shape"/>
<feGaussianBlur stdDeviation="92.6883" result="effect1_foregroundBlur_313_340"/>
</filter>
<filter id="filter11_f_313_340" x="422.673" y="-30.4326" width="645.205" height="428.927" filterUnits="userSpaceOnUse" color-interpolation-filters="sRGB">
<feFlood flood-opacity="0" result="BackgroundImageFix"/>
<feBlend mode="normal" in="SourceGraphic" in2="BackgroundImageFix" result="shape"/>
<feGaussianBlur stdDeviation="24" result="effect1_foregroundBlur_313_340"/>
</filter>
<filter id="filter12_f_313_340" x="261.651" y="171.096" width="916.698" height="248.156" filterUnits="userSpaceOnUse" color-interpolation-filters="sRGB">
<feFlood flood-opacity="0" result="BackgroundImageFix"/>
<feBlend mode="normal" in="SourceGraphic" in2="BackgroundImageFix" result="shape"/>
<feGaussianBlur stdDeviation="32" result="effect1_foregroundBlur_313_340"/>
</filter>
<filter id="filter13_f_313_340" x="-803.826" y="-254.46" width="3120.61" height="676.936" filterUnits="userSpaceOnUse" color-interpolation-filters="sRGB">
<feFlood flood-opacity="0" result="BackgroundImageFix"/>
<feBlend mode="normal" in="SourceGraphic" in2="BackgroundImageFix" result="shape"/>
<feGaussianBlur stdDeviation="58" result="effect1_foregroundBlur_313_340"/>
</filter>
<filter id="filter14_f_313_340" x="-803.826" y="-254.46" width="3120.61" height="676.936" filterUnits="userSpaceOnUse" color-interpolation-filters="sRGB">
<feFlood flood-opacity="0" result="BackgroundImageFix"/>
<feBlend mode="normal" in="SourceGraphic" in2="BackgroundImageFix" result="shape"/>
<feGaussianBlur stdDeviation="58" result="effect1_foregroundBlur_313_340"/>
</filter>
<clipPath id="clip0_313_340">
<rect width="1440" height="650" fill="white"/>
</clipPath>
</defs>
</svg>
