<svg width="46" height="47" viewBox="0 0 46 47" fill="none" xmlns="http://www.w3.org/2000/svg">
<g filter="url(#filter0_i_69_442)">
<circle cx="23" cy="23.5127" r="22" fill="white" fill-opacity="0.02"/>
</g>
<circle cx="23" cy="23.5127" r="22.5" stroke="white" stroke-opacity="0.1"/>
<path d="M27.017 13.5127H18.947C17.3702 13.5145 15.8584 14.1418 14.7435 15.2569C13.6286 16.372 13.0016 17.8838 13 19.4607L13 27.5307C13.0019 29.1075 13.6291 30.6193 14.7442 31.7342C15.8593 32.8491 17.3712 33.4761 18.948 33.4777H27.018C28.5948 33.4758 30.1066 32.8486 31.2215 31.7335C32.3364 30.6184 32.9634 29.1065 32.965 27.5297V19.4597C32.9631 17.8828 32.3359 16.3711 31.2208 15.2562C30.1057 14.1413 28.5938 13.5143 27.017 13.5127ZM30.957 27.5297C30.957 28.0471 30.8551 28.5594 30.6571 29.0375C30.4591 29.5155 30.1689 29.9498 29.803 30.3157C29.4371 30.6816 29.0028 30.9718 28.5248 31.1698C28.0468 31.3678 27.5344 31.4697 27.017 31.4697H18.947C17.9022 31.4694 16.9003 31.0542 16.1616 30.3153C15.423 29.5765 15.008 28.5745 15.008 27.5297V19.4597C15.0083 18.4149 15.4235 17.413 16.1624 16.6743C16.9012 15.9357 17.9032 15.5207 18.948 15.5207H27.018C28.0628 15.521 29.0647 15.9362 29.8034 16.675C30.542 17.4139 30.957 18.4159 30.957 19.4607V27.5297Z" fill="white"/>
<path d="M22.982 18.3315C21.6134 18.3337 20.3015 18.8783 19.3339 19.8461C18.3663 20.814 17.8219 22.126 17.82 23.4945C17.8216 24.8635 18.366 26.1759 19.3339 27.1439C20.3018 28.112 21.6141 28.6567 22.983 28.6585C24.3521 28.657 25.6647 28.1124 26.6328 27.1443C27.6008 26.1762 28.1454 24.8636 28.147 23.4945C28.1449 22.1256 27.5999 20.8134 26.6317 19.8457C25.6634 18.878 24.3509 18.3339 22.982 18.3325V18.3315ZM22.982 26.6505C22.1452 26.6505 21.3428 26.3181 20.7511 25.7265C20.1594 25.1348 19.827 24.3323 19.827 23.4955C19.827 22.6588 20.1594 21.8563 20.7511 21.2646C21.3428 20.6729 22.1452 20.3405 22.982 20.3405C23.8188 20.3405 24.6213 20.6729 25.2129 21.2646C25.8046 21.8563 26.137 22.6588 26.137 23.4955C26.137 24.3323 25.8046 25.1348 25.2129 25.7265C24.6213 26.3181 23.8188 26.6505 22.982 26.6505Z" fill="white"/>
<path d="M28.156 19.6078C28.8392 19.6078 29.393 19.054 29.393 18.3708C29.393 17.6876 28.8392 17.1338 28.156 17.1338C27.4728 17.1338 26.919 17.6876 26.919 18.3708C26.919 19.054 27.4728 19.6078 28.156 19.6078Z" fill="white"/>
<defs>
<filter id="filter0_i_69_442" x="0" y="0.512695" width="46" height="46" filterUnits="userSpaceOnUse" color-interpolation-filters="sRGB">
<feFlood flood-opacity="0" result="BackgroundImageFix"/>
<feBlend mode="normal" in="SourceGraphic" in2="BackgroundImageFix" result="shape"/>
<feColorMatrix in="SourceAlpha" type="matrix" values="0 0 0 0 0 0 0 0 0 0 0 0 0 0 0 0 0 0 127 0" result="hardAlpha"/>
<feOffset/>
<feGaussianBlur stdDeviation="10"/>
<feComposite in2="hardAlpha" operator="arithmetic" k2="-1" k3="1"/>
<feColorMatrix type="matrix" values="0 0 0 0 1 0 0 0 0 1 0 0 0 0 1 0 0 0 0.2 0"/>
<feBlend mode="normal" in2="shape" result="effect1_innerShadow_69_442"/>
</filter>
</defs>
</svg>
