<svg width="230" height="35" viewBox="0 0 230 35" fill="none" xmlns="http://www.w3.org/2000/svg">
<path d="M14.7258 13.9207L19.1894 13.1041L19.2415 20.2613L10.3068 21.8957L10.261 14.7358" fill="white"/>
<path d="M10.2716 16.3863C10.2681 15.8362 10.2645 15.286 10.261 14.7359C11.3808 14.5314 12.5005 14.327 13.6203 14.1226C13.6886 14.2221 15.2416 16.5749 14.0373 19.1125C12.9416 21.4212 10.5234 21.8603 10.3068 21.8958C10.2951 20.0593 10.2833 18.2228 10.2716 16.3863Z" fill="white"/>
<path d="M19.2311 18.6111C19.2636 19.1996 19.3048 19.7771 19.3536 20.3433C18.1756 20.5247 16.9976 20.7061 15.8195 20.8876C15.6031 20.3209 15.1514 18.9001 15.5895 17.2086C16.313 14.416 18.8485 13.254 19.1959 13.1017C19.1225 14.8332 19.124 16.6741 19.2311 18.6111Z" fill="white"/>
<path d="M27.7408 12.5873C26.7144 11.6973 25.4094 11.9592 25.1996 12.0049C23.1962 12.3714 21.1929 12.7379 19.1895 13.1043C17.6187 14.0108 16.7738 15.7407 17.0624 17.3974C17.404 19.3578 19.165 20.2514 19.3536 20.3432C19.3107 19.7667 19.2677 19.1902 19.2247 18.6138C20.3632 19.5744 21.5017 20.535 22.6402 21.4956C21.4838 22.9101 20.3275 24.3247 19.1711 25.7392L19.1596 23.9368C14.2155 24.8412 9.27133 25.7456 4.32719 26.6501C4.09742 26.6959 2.76154 26.9854 1.76016 28.3077C0.881133 29.4685 0.849263 30.6468 0.849152 30.9316C0.856759 32.1211 0.864367 33.3106 0.871975 34.5001C13.637 32.3368 23.0146 30.3727 25.3495 30.0225C25.8718 29.9441 26.9073 29.6192 27.7198 28.6909C28.6225 27.6595 28.762 26.3755 28.7859 25.7657C28.7629 22.1623 28.7398 18.5589 28.7168 14.9556C28.7217 14.7305 28.7294 13.4445 27.7408 12.5873Z" fill="white"/>
<path d="M1.75564 22.4128C2.78205 23.3028 4.08703 23.041 4.29681 22.9952C6.30018 22.6287 8.30355 22.2623 10.3069 21.8958C11.7117 21.1737 12.5728 19.7068 12.5053 18.1526C12.4422 16.7012 11.5788 15.3897 10.2611 14.7359C10.2647 15.2861 10.2682 15.8362 10.2717 16.3864C9.1332 15.4257 7.99471 14.4651 6.85622 13.5045C8.01258 12.09 9.16894 10.6755 10.3253 9.26093L10.3368 11.0633C15.281 10.1589 20.2251 9.25447 25.1692 8.35005C25.399 8.30421 26.7349 8.01475 27.7363 6.6924C28.6153 5.53163 28.6472 4.35333 28.6473 4.06852C28.6397 2.87901 28.6321 1.6895 28.6245 0.5C15.8595 2.66329 6.48183 4.62744 4.14691 4.97764C3.62461 5.05598 2.58914 5.38088 1.77663 6.30922C0.873884 7.34066 0.734462 8.62463 0.71051 9.23444C0.733554 12.8378 0.756606 16.4412 0.779649 20.0445C0.774693 20.2696 0.767073 21.5556 1.75564 22.4128Z" fill="white"/>
<path d="M6.85603 13.5045L0.716397 19.6441C0.563102 20.7629 1.00709 21.8659 1.87994 22.5084C2.92519 23.2778 4.10952 23.0365 4.29662 22.9952C6.29999 22.6287 8.30336 22.2622 10.3067 21.8958C11.7115 21.1737 12.5726 19.7068 12.5051 18.1526C12.4421 16.7012 11.5786 15.3897 10.2609 14.7359C10.2645 15.286 10.268 15.8362 10.2715 16.3863C9.13301 15.4257 7.99452 14.4651 6.85603 13.5045Z" fill="white"/>
<path d="M19.1711 25.739L14.21 32.1127L0.871975 34.5L0.849152 30.9314C0.85242 30.5928 0.903915 29.0428 2.13192 27.8209C2.96309 26.9938 3.91198 26.7362 4.32719 26.6499C9.27133 25.7455 14.2155 24.8411 19.1596 23.9366C19.1634 24.5374 19.1673 25.1382 19.1711 25.739Z" fill="white"/>
<path d="M45.9324 20.0758C45.9324 20.8596 46.4965 21.2515 47.6248 21.2515C48.7551 21.2515 49.3203 20.8998 49.3203 20.1965C49.3203 19.821 49.1274 19.5147 48.7417 19.2775C48.3539 19.0383 47.8857 18.8392 47.337 18.6804C46.7863 18.5236 46.2356 18.3401 45.6848 18.1297C45.1362 17.9193 44.668 17.5903 44.2802 17.1427C43.8945 16.6951 43.7016 16.1361 43.7016 15.4657C43.7016 12.6193 45.5343 11.196 49.1996 11.196C50.5383 11.196 51.551 11.4477 52.2379 11.951C52.9248 12.4563 53.2682 13.1566 53.2682 14.0518C53.2682 14.3818 53.2249 14.6974 53.1383 14.9986C53.0537 15.2997 52.966 15.5122 52.8753 15.6359L52.7391 15.8401H49.7287C49.9762 15.5802 50.1 15.2512 50.1 14.8531C50.1 14.1168 49.6183 13.7486 48.6551 13.7486C47.4402 13.7486 46.8327 14.1333 46.8327 14.9026C46.8327 15.2884 47.0266 15.5957 47.4144 15.8246C47.8001 16.0495 48.2673 16.2279 48.816 16.3599C49.3667 16.4899 49.9195 16.6507 50.4743 16.8426C51.0313 17.0365 51.5026 17.3572 51.8883 17.8048C52.274 18.2524 52.4669 18.8341 52.4669 19.5498C52.4669 20.9895 52.0358 22.059 51.1736 22.7583C50.3114 23.4555 48.9841 23.804 47.1916 23.804C45.3992 23.804 44.174 23.4864 43.516 22.8511C43.0292 22.3746 42.7858 21.7166 42.7858 20.8771C42.7858 20.5595 42.8198 20.214 42.8879 19.8406L42.9374 19.5653H46.0004L45.9664 19.7695C45.9437 19.885 45.9324 19.9871 45.9324 20.0758ZM60.2606 15.6204H60.6536L63.5279 11.3136H66.5909L61.3497 18.8537L60.5174 23.5658H57.4358L58.2681 18.8537L55.6815 11.3136H58.9333L60.2606 15.6204ZM75.7306 11.3136H78.7905L76.6495 23.5658H73.5679L71.4237 16.8611L70.2666 23.5658H67.1881L69.3477 11.3136H72.5128L74.6229 17.5758L75.7306 11.3136ZM82.7075 11.3136H87.4722C88.9574 11.3136 90.0176 11.688 90.6529 12.4367C91.117 13.004 91.349 13.7135 91.349 14.5654C91.349 14.8707 91.3212 15.1935 91.2655 15.5338L90.6034 19.327C90.3744 20.61 89.8175 21.6372 88.9326 22.4087C88.0498 23.1801 86.905 23.5658 85.4983 23.5658H80.5448L82.7075 11.3136ZM86.3986 13.9683H85.291L84.0843 20.9112H85.7025C86.2346 20.9112 86.6513 20.7668 86.9525 20.478C87.2536 20.1892 87.4599 19.7159 87.5713 19.0579L88.0663 16.2671C88.1117 16.0175 88.1344 15.7896 88.1344 15.5833C88.1344 14.5066 87.5558 13.9683 86.3986 13.9683ZM95.5878 11.3136H98.6508L96.5067 23.5658H93.4282L95.5878 11.3136ZM104.709 23.804C103.088 23.804 101.964 23.4524 101.339 22.749C100.908 22.2498 100.693 21.5527 100.693 20.6575C100.693 20.2697 100.733 19.8551 100.814 19.4137L101.51 15.4998C102.021 12.6306 103.865 11.196 107.042 11.196C108.358 11.196 109.356 11.4766 110.037 12.0376C110.717 12.5987 111.058 13.367 111.058 14.3426C111.058 14.7964 110.992 15.2471 110.86 15.6947C110.73 16.1423 110.603 16.4744 110.479 16.691L110.29 17.0313H107.28C107.653 16.6002 107.84 15.9876 107.84 15.1935C107.84 14.7748 107.733 14.4427 107.518 14.1972C107.302 13.9538 106.984 13.8321 106.565 13.8321C105.418 13.8321 104.738 14.4674 104.523 15.738L103.926 19.1754C103.87 19.4704 103.843 19.7602 103.843 20.0448C103.843 20.7936 104.29 21.168 105.185 21.168C106.264 21.168 106.911 20.5605 107.125 19.3456H110.188L110.105 19.8406C109.651 22.4829 107.852 23.804 104.709 23.804ZM122.066 23.5658H118.833L118.935 20.8957H116.095L115.259 23.5658H112.011L116.382 11.3136H121.998L122.066 23.5658ZM119.207 14.29H118.137L116.791 18.6154H119.022L119.207 14.29ZM136.803 11.3136L136.326 13.9683H132.14L130.457 23.5658H127.375L129.062 13.9683H124.857L125.333 11.3136H136.803ZM146.552 20.9112L146.079 23.5658H137.536L139.696 11.3136H148.238L147.762 13.9683H142.282L141.889 16.2671H146.416L145.939 18.9186H141.413L141.076 20.9112H146.552ZM163.962 16.4187L163.501 19.0733H158.974L158.192 23.5658H155.113L157.273 11.3136H165.815L165.339 13.9683H159.859L159.435 16.4187H163.962ZM175.304 22.6716C174.401 23.4266 173.127 23.804 171.483 23.804C169.837 23.804 168.697 23.4235 168.061 22.6624C167.608 22.1405 167.381 21.4206 167.381 20.5028C167.381 20.0944 167.426 19.6468 167.517 19.16L168.897 11.3136H171.96L170.58 19.0919C170.534 19.3745 170.512 19.6684 170.512 19.9737C170.512 20.7699 170.988 21.168 171.941 21.168C172.508 21.168 172.962 21.0195 173.303 20.7224C173.643 20.4275 173.881 19.884 174.017 19.0919L175.397 11.3136H178.46L177.08 19.16C176.798 20.7482 176.206 21.9188 175.304 22.6716ZM188.652 11.3136H191.715L189.571 23.5658H186.492L184.348 16.8611L183.191 23.5658H180.109L182.272 11.3136H185.437L187.547 17.5758L188.652 11.3136ZM195.629 11.3136H200.393C201.881 11.3136 202.942 11.688 203.577 12.4367C204.041 13.004 204.273 13.7135 204.273 14.5654C204.273 14.8707 204.246 15.1935 204.19 15.5338L203.525 19.327C203.298 20.61 202.742 21.6372 201.857 22.4087C200.972 23.1801 199.826 23.5658 198.42 23.5658H193.469L195.629 11.3136ZM199.323 13.9683H198.215L197.009 20.9112H198.624C199.158 20.9112 199.576 20.7668 199.877 20.478C200.176 20.1892 200.382 19.7159 200.496 19.0579L200.991 16.2671C201.036 16.0175 201.059 15.7896 201.059 15.5833C201.059 14.5066 200.48 13.9683 199.323 13.9683ZM215.368 20.9112L214.892 23.5658H206.349L208.512 11.3136H217.055L216.578 13.9683H211.099L210.706 16.2671H215.232L214.756 18.9186H210.229L209.889 20.9112H215.368ZM220.508 11.3136H225.272C226.759 11.3136 227.821 11.688 228.456 12.4367C228.922 13.004 229.155 13.7135 229.155 14.5654C229.155 14.8707 229.126 15.1935 229.069 15.5338L228.403 19.327C228.179 20.61 227.623 21.6372 226.736 22.4087C225.851 23.1801 224.705 23.5658 223.298 23.5658H218.348L220.508 11.3136ZM224.202 13.9683H223.094L221.887 20.9112H223.506C224.038 20.9112 224.454 20.7668 224.756 20.478C225.057 20.1892 225.263 19.7159 225.374 19.0579L225.869 16.2671C225.915 16.0175 225.937 15.7896 225.937 15.5833C225.937 14.5066 225.359 13.9683 224.202 13.9683Z" fill="white"/>
</svg>
