<svg width="38" height="46" viewBox="0 0 38 46" fill="none" xmlns="http://www.w3.org/2000/svg">
<path d="M18.7445 18.4261L24.7041 17.3359L24.7737 26.8918L12.8445 29.074L12.7833 19.5145" fill="white"/>
<path d="M12.7974 21.7178C12.7927 20.9833 12.788 20.2487 12.7833 19.5142C14.2784 19.2412 15.7734 18.9683 17.2685 18.6953C17.3596 18.8283 19.4331 21.9696 17.8252 25.3576C16.3623 28.4401 13.1337 29.0264 12.8445 29.0737C12.8288 26.6218 12.8131 24.1698 12.7974 21.7178Z" fill="white"/>
<path d="M24.7598 24.6885C24.8032 25.4741 24.8582 26.2452 24.9234 27.0011C23.3506 27.2434 21.7777 27.4856 20.2048 27.7279C19.9159 26.9712 19.3127 25.0743 19.8978 22.8159C20.8636 19.0873 24.2489 17.5358 24.7127 17.3325C24.6148 19.6443 24.6168 22.1022 24.7598 24.6885Z" fill="white"/>
<path d="M36.1216 16.6455C34.7512 15.4572 33.0088 15.8068 32.7288 15.8678C30.0539 16.3571 27.3791 16.8464 24.7043 17.3357C22.6071 18.546 21.479 20.8557 21.8644 23.0676C22.3204 25.6851 24.6716 26.8781 24.9235 27.0007C24.8661 26.231 24.8087 25.4614 24.7514 24.6917C26.2714 25.9742 27.7915 27.2568 29.3116 28.5393C27.7676 30.428 26.2237 32.3166 24.6798 34.2052L24.6644 31.7987C18.0632 33.0063 11.4621 34.2138 4.86088 35.4214C4.5541 35.4826 2.7705 35.869 1.43349 37.6346C0.259863 39.1844 0.217312 40.7576 0.217163 41.1379C0.227321 42.726 0.237478 44.3142 0.247636 45.9024C17.2908 43.014 29.8114 40.3916 32.9289 39.924C33.6263 39.8194 35.0088 39.3857 36.0936 38.1462C37.2989 36.7691 37.485 35.0547 37.517 34.2406C37.4862 29.4295 37.4555 24.6185 37.4247 19.8074C37.4313 19.5069 37.4415 17.79 36.1216 16.6455Z" fill="white"/>
<path d="M1.42739 29.7642C2.7978 30.9525 4.54016 30.6029 4.82024 30.5419C7.49505 30.0526 10.1699 29.5633 12.8447 29.074C14.7203 28.1099 15.8699 26.1513 15.7798 24.0762C15.6956 22.1384 14.5428 20.3873 12.7835 19.5144C12.7882 20.249 12.7929 20.9835 12.7976 21.718C11.2776 20.4355 9.7575 19.1529 8.23744 17.8703C9.78136 15.9817 11.3253 14.0931 12.8692 12.2045L12.8846 14.611C19.4858 13.4034 26.0869 12.1959 32.6881 10.9883C32.9949 10.9271 34.7785 10.5407 36.1155 8.77512C37.2891 7.22532 37.3317 5.6521 37.3318 5.27184C37.3217 3.68367 37.3115 2.09549 37.3014 0.507324C20.2582 3.39565 7.73757 6.01808 4.6201 6.48566C3.92274 6.59025 2.54024 7.02404 1.45542 8.26352C0.250111 9.64065 0.0639622 11.3549 0.0319824 12.1691C0.0627488 16.9802 0.0935272 21.7912 0.124294 26.6022C0.117676 26.9028 0.107502 28.6197 1.42739 29.7642Z" fill="white"/>
<path d="M8.23723 17.8706L0.0398862 26.0679C-0.164786 27.5617 0.428004 29.0344 1.5934 29.8922C2.98896 30.9194 4.57022 30.5973 4.82003 30.5421C7.49484 30.0528 10.1696 29.5635 12.8444 29.0742C14.7201 28.1101 15.8697 26.1516 15.7796 24.0765C15.6954 22.1386 14.5426 20.3876 12.7833 19.5147C12.788 20.2492 12.7927 20.9837 12.7974 21.7183C11.2773 20.4357 9.75728 19.1532 8.23723 17.8706Z" fill="white"/>
<path d="M24.6798 34.2053L18.056 42.7151L0.247636 45.9025L0.217163 41.138C0.221527 40.6858 0.29028 38.6163 1.92985 36.9849C3.03959 35.8806 4.3065 35.5367 4.86088 35.4215C11.4621 34.2139 18.0632 33.0064 24.6644 31.7988C24.6695 32.601 24.6747 33.4031 24.6798 34.2053Z" fill="white"/>
</svg>
