<svg width="77" height="77" viewBox="0 0 77 77" fill="none" xmlns="http://www.w3.org/2000/svg">
<rect x="0.447021" y="0.513916" width="76.2777" height="75.641" rx="37.8205" fill="url(#paint0_linear_69_879)"/>
<rect x="0.947021" y="1.01392" width="75.2777" height="74.641" rx="37.3205" stroke="white" stroke-opacity="0.2"/>
<g clip-path="url(#clip0_69_879)">
<path d="M26.4218 43.3344L32.5031 32.7985L32.1531 32.1923C31.6299 31.3145 31.2916 30.3391 31.1589 29.3259C31.0263 28.3127 31.1021 27.2831 31.3817 26.3002C31.6613 25.3174 32.1387 24.402 32.7848 23.6103C33.4309 22.8186 34.2319 22.1673 35.1388 21.6964C36.0456 21.2254 37.0391 20.9447 38.0584 20.8716C39.0776 20.7984 40.101 20.9342 41.0658 21.2708C42.0307 21.6074 42.9165 22.1376 43.6691 22.8289C44.4216 23.5201 45.025 24.3579 45.4421 25.2907C45.573 25.5755 45.5946 25.8985 45.5027 26.1982C45.4108 26.4979 45.2118 26.7533 44.9437 26.9157C44.7913 27.0042 44.6219 27.0595 44.4466 27.0779C44.2713 27.0963 44.0942 27.0774 43.9267 27.0225C43.7592 26.9677 43.6053 26.878 43.4749 26.7594C43.3445 26.6408 43.2407 26.496 43.1702 26.3344C42.8944 25.7109 42.4939 25.1504 41.9934 24.6874C41.4929 24.2244 40.9031 23.8686 40.26 23.6419C39.617 23.4153 38.9344 23.3225 38.2542 23.3694C37.574 23.4162 36.9105 23.6017 36.3046 23.9144C35.6988 24.2271 35.1632 24.6604 34.731 25.1877C34.2988 25.715 33.9789 26.3252 33.7912 26.9806C33.6034 27.6361 33.5517 28.323 33.6392 28.9992C33.7267 29.6754 33.9515 30.3265 34.2999 30.9126C34.305 30.9187 34.3092 30.9256 34.3124 30.9329L36.4734 34.6735C36.5831 34.8635 36.6408 35.0791 36.6408 35.2985C36.6408 35.5179 36.5831 35.7335 36.4734 35.9235L30.7515 45.8344C30.4156 46.3999 29.8704 46.8102 29.2341 46.9765C28.5978 47.1428 27.9216 47.0516 27.352 46.7227C26.7824 46.3939 26.3654 45.8538 26.1913 45.2196C26.0172 44.5853 26.1 43.908 26.4218 43.3344ZM48.4531 37.0844H46.5249L40.7515 27.0844C40.4156 26.519 39.8704 26.1086 39.2341 25.9424C38.5978 25.7761 37.9216 25.8673 37.352 26.1961C36.7824 26.525 36.3654 27.0651 36.1913 27.6993C36.0172 28.3336 36.1 29.0109 36.4218 29.5844L41.8343 38.9594C41.9439 39.1493 42.1015 39.307 42.2913 39.4167C42.4811 39.5264 42.6964 39.5842 42.9156 39.5844H48.4827C51.2781 39.5844 53.6312 41.8719 53.5859 44.6673C53.5643 45.9706 53.0347 47.214 52.1098 48.1325C51.1848 49.051 49.9378 49.572 48.6343 49.5844C48.3149 49.5806 48.0056 49.6957 47.7664 49.9074C47.5273 50.1191 47.3755 50.4123 47.3406 50.7298C47.326 50.9025 47.3476 51.0764 47.4039 51.2403C47.4602 51.4043 47.5499 51.5547 47.6675 51.6821C47.7851 51.8095 47.9278 51.9111 48.0867 51.9803C48.2456 52.0496 48.4172 52.0851 48.5906 52.0844C49.5875 52.0836 50.5743 51.8842 51.4934 51.4978C52.4124 51.1115 53.2454 50.546 53.9435 49.8343C54.6417 49.1226 55.1911 48.279 55.5597 47.3527C55.9284 46.4264 56.1088 45.4359 56.0906 44.4391C56.0062 40.3329 52.5671 37.0844 48.4593 37.0844H48.4531ZM51.0859 44.4641C51.0234 43.1188 49.864 42.0844 48.5187 42.0844H36.5249C36.3055 42.0844 36.0899 42.1421 35.8998 42.2518C35.7097 42.3616 35.5519 42.5194 35.4421 42.7094L32.9171 47.0844C32.5763 47.6721 32.1193 48.1842 31.574 48.5894C31.0287 48.9946 30.4066 49.2844 29.7455 49.4412C29.0845 49.5979 28.3985 49.6184 27.7293 49.5012C27.0601 49.384 26.4219 49.1316 25.8534 48.7596C25.285 48.3875 24.7984 47.9035 24.4232 47.3371C24.0481 46.7707 23.7923 46.1338 23.6715 45.4653C23.5507 44.7968 23.5674 44.1106 23.7206 43.4487C23.8737 42.7869 24.1602 42.1632 24.5624 41.6157C24.7567 41.3627 24.8497 41.0464 24.8231 40.7285C24.7965 40.4106 24.6523 40.1141 24.4187 39.8969C24.2895 39.7819 24.1379 39.6948 23.9734 39.6414C23.8089 39.5879 23.6351 39.5692 23.4629 39.5864C23.2908 39.6036 23.1241 39.6563 22.9734 39.7412C22.8227 39.8261 22.6913 39.9414 22.5874 40.0798C21.6232 41.3574 21.0967 42.9119 21.0859 44.5126C21.071 46.1688 21.6049 47.7834 22.6041 49.1043C23.6033 50.4253 25.0116 51.3783 26.6094 51.8147C28.2072 52.2512 29.9044 52.1464 31.4364 51.5168C32.9684 50.8872 34.2489 49.7682 35.0781 48.3344L35.7999 47.0844H48.5859C48.9246 47.0848 49.2598 47.0164 49.5712 46.8833C49.8826 46.7502 50.1638 46.5552 50.3976 46.3102C50.6314 46.0652 50.8129 45.7752 50.9312 45.4578C51.0496 45.1405 51.1022 44.8024 51.0859 44.4641Z" fill="white"/>
</g>
<defs>
<linearGradient id="paint0_linear_69_879" x1="38.5858" y1="0.513916" x2="38.5858" y2="76.1549" gradientUnits="userSpaceOnUse">
<stop stop-color="#5B1CD4"/>
<stop offset="1" stop-color="#310F73"/>
</linearGradient>
<clipPath id="clip0_69_879">
<rect width="40" height="40" fill="white" transform="translate(18.5858 18.3344)"/>
</clipPath>
</defs>
</svg>
