<svg width="169" height="41" viewBox="0 0 169 41" fill="none" xmlns="http://www.w3.org/2000/svg">
<rect x="23.759" y="10.7738" width="6.8" height="6.8" fill="white"/>
<rect x="16.9589" y="17.5739" width="6.8" height="6.8" fill="white"/>
<rect x="16.9589" y="17.5739" width="6.8" height="6.8" fill="white"/>
<rect x="23.759" y="24.3739" width="6.8" height="6.8" fill="white"/>
<rect x="16.9589" y="31.174" width="6.8" height="6.8" fill="white"/>
<rect x="10.1589" y="31.174" width="6.8" height="6.8" fill="white"/>
<rect x="16.9589" y="3.97388" width="6.8" height="6.8" fill="white"/>
<path d="M10.1589 3.97388H16.9589V10.7739H10.1589V3.97388Z" fill="white"/>
<path d="M51.8149 29.8699H51.6549C51.2923 30.8512 50.6949 31.6192 49.8629 32.1739C49.0523 32.7286 48.0923 33.0059 46.9829 33.0059C44.8709 33.0059 43.2389 32.2486 42.0869 30.7339C40.9349 29.1979 40.3589 27.0539 40.3589 24.3019C40.3589 21.5499 40.9349 19.4166 42.0869 17.9019C43.2389 16.3659 44.8709 15.5979 46.9829 15.5979C48.0923 15.5979 49.0523 15.8752 49.8629 16.4299C50.6949 16.9632 51.2923 17.7312 51.6549 18.7339H51.8149V8.94189H55.3029V32.6219H51.8149V29.8699ZM48.0389 29.9979C49.1056 29.9979 50.0016 29.7419 50.7269 29.2299C51.4523 28.6966 51.8149 28.0032 51.8149 27.1499V21.4539C51.8149 20.6006 51.4523 19.9179 50.7269 19.4059C50.0016 18.8726 49.1056 18.6059 48.0389 18.6059C46.8229 18.6059 45.8523 19.0006 45.1269 19.7899C44.4016 20.5579 44.0389 21.5819 44.0389 22.8619V25.7419C44.0389 27.0219 44.4016 28.0566 45.1269 28.8459C45.8523 29.6139 46.8229 29.9979 48.0389 29.9979Z" fill="white"/>
<path d="M70.4804 32.6219C69.5631 32.6219 68.8591 32.3659 68.3684 31.8539C67.8778 31.3206 67.5791 30.6486 67.4724 29.8379H67.3124C66.9924 30.8832 66.4058 31.6726 65.5524 32.2059C64.6991 32.7392 63.6644 33.0059 62.4484 33.0059C60.7204 33.0059 59.3871 32.5579 58.4484 31.6619C57.5311 30.7659 57.0724 29.5606 57.0724 28.0459C57.0724 26.3819 57.6698 25.1339 58.8644 24.3019C60.0804 23.4699 61.8511 23.0539 64.1764 23.0539H67.1844V21.6459C67.1844 20.6219 66.9071 19.8326 66.3524 19.2779C65.7978 18.7232 64.9338 18.4459 63.7604 18.4459C62.7791 18.4459 61.9791 18.6592 61.3604 19.0859C60.7418 19.5126 60.2191 20.0566 59.7924 20.7179L57.7124 18.8299C58.2671 17.8912 59.0458 17.1232 60.0484 16.5259C61.0511 15.9072 62.3631 15.5979 63.9844 15.5979C66.1391 15.5979 67.7924 16.0992 68.9444 17.1019C70.0964 18.1046 70.6724 19.5446 70.6724 21.4219V29.7739H72.4324V32.6219H70.4804ZM63.4404 30.3499C64.5285 30.3499 65.4244 30.1152 66.1284 29.6459C66.8324 29.1552 67.1844 28.5046 67.1844 27.6939V25.2939H64.2404C61.8298 25.2939 60.6244 26.0406 60.6244 27.5339V28.1099C60.6244 28.8566 60.8698 29.4219 61.3604 29.8059C61.8724 30.1686 62.5658 30.3499 63.4404 30.3499Z" fill="white"/>
<path d="M78.3652 32.6219C77.1492 32.6219 76.2319 32.3126 75.6132 31.6939C74.9945 31.0539 74.6852 30.1579 74.6852 29.0059V18.8299H72.0932V15.9819H73.5012C74.0772 15.9819 74.4719 15.8539 74.6852 15.5979C74.9199 15.3419 75.0372 14.9259 75.0372 14.3499V11.4379H78.1732V15.9819H81.6612V18.8299H78.1732V29.7739H81.4052V32.6219H78.3652Z" fill="white"/>
<path d="M95.6367 32.6219C94.7194 32.6219 94.0154 32.3659 93.5247 31.8539C93.034 31.3206 92.7354 30.6486 92.6287 29.8379H92.4687C92.1487 30.8832 91.562 31.6726 90.7087 32.2059C89.8554 32.7392 88.8207 33.0059 87.6047 33.0059C85.8767 33.0059 84.5434 32.5579 83.6047 31.6619C82.6874 30.7659 82.2287 29.5606 82.2287 28.0459C82.2287 26.3819 82.826 25.1339 84.0207 24.3019C85.2367 23.4699 87.0074 23.0539 89.3327 23.0539H92.3407V21.6459C92.3407 20.6219 92.0634 19.8326 91.5087 19.2779C90.954 18.7232 90.09 18.4459 88.9167 18.4459C87.9354 18.4459 87.1354 18.6592 86.5167 19.0859C85.898 19.5126 85.3754 20.0566 84.9487 20.7179L82.8687 18.8299C83.4234 17.8912 84.202 17.1232 85.2047 16.5259C86.2074 15.9072 87.5194 15.5979 89.1407 15.5979C91.2954 15.5979 92.9487 16.0992 94.1007 17.1019C95.2527 18.1046 95.8287 19.5446 95.8287 21.4219V29.7739H97.5887V32.6219H95.6367ZM88.5967 30.3499C89.6847 30.3499 90.5807 30.1152 91.2847 29.6459C91.9887 29.1552 92.3407 28.5046 92.3407 27.6939V25.2939H89.3967C86.986 25.2939 85.7807 26.0406 85.7807 27.5339V28.1099C85.7807 28.8566 86.026 29.4219 86.5167 29.8059C87.0287 30.1686 87.722 30.3499 88.5967 30.3499Z" fill="white"/>
<path d="M99.2632 10.2859H109.151C111.007 10.2859 112.458 10.8086 113.503 11.8539C114.57 12.8992 115.103 14.2966 115.103 16.0459C115.103 16.8779 114.986 17.5926 114.751 18.1899C114.517 18.7659 114.218 19.2459 113.855 19.6299C113.493 19.9926 113.077 20.2699 112.607 20.4619C112.138 20.6326 111.679 20.7392 111.231 20.7819V20.9739C111.679 20.9952 112.17 21.1019 112.703 21.2939C113.258 21.4859 113.77 21.7952 114.239 22.2219C114.709 22.6272 115.103 23.1606 115.423 23.8219C115.743 24.4619 115.903 25.2512 115.903 26.1899C115.903 27.0859 115.754 27.9286 115.455 28.7179C115.178 29.5072 114.783 30.1899 114.271 30.7659C113.759 31.3419 113.151 31.8006 112.447 32.1419C111.743 32.4619 110.975 32.6219 110.143 32.6219H99.2632V10.2859ZM102.879 29.5179H109.087C110.026 29.5179 110.762 29.2726 111.295 28.7819C111.829 28.2912 112.095 27.5872 112.095 26.6699V25.5819C112.095 24.6646 111.829 23.9606 111.295 23.4699C110.762 22.9792 110.026 22.7339 109.087 22.7339H102.879V29.5179ZM102.879 19.7259H108.479C109.375 19.7259 110.069 19.5019 110.559 19.0539C111.05 18.5846 111.295 17.9232 111.295 17.0699V16.0459C111.295 15.1926 111.05 14.5419 110.559 14.0939C110.069 13.6246 109.375 13.3899 108.479 13.3899H102.879V19.7259Z" fill="white"/>
<path d="M118.101 15.9819H121.589V32.6219H118.101V15.9819Z" fill="white"/>
<path d="M129.178 32.6219C127.962 32.6219 127.044 32.3126 126.426 31.6939C125.807 31.0539 125.498 30.1579 125.498 29.0059V18.8299H122.906V15.9819H124.314C124.89 15.9819 125.284 15.8539 125.498 15.5979C125.732 15.3419 125.85 14.9259 125.85 14.3499V11.4379H128.986V15.9819H132.474V18.8299H128.986V29.7739H132.218V32.6219H129.178Z" fill="white"/>
<path d="M140.66 33.0059C139.466 33.0059 138.399 32.8032 137.46 32.3979C136.522 31.9926 135.722 31.4166 135.06 30.6699C134.399 29.9019 133.887 28.9846 133.524 27.9179C133.183 26.8299 133.012 25.6246 133.012 24.3019C133.012 22.9792 133.183 21.7846 133.524 20.7179C133.887 19.6299 134.399 18.7126 135.06 17.9659C135.722 17.1979 136.522 16.6112 137.46 16.2059C138.399 15.8006 139.466 15.5979 140.66 15.5979C141.876 15.5979 142.943 15.8112 143.86 16.2379C144.799 16.6646 145.578 17.2619 146.196 18.0299C146.815 18.7766 147.274 19.6512 147.572 20.6539C147.892 21.6566 148.052 22.7339 148.052 23.8859V25.1979H136.628V25.7419C136.628 27.0219 137.002 28.0779 137.748 28.9099C138.516 29.7206 139.604 30.1259 141.012 30.1259C142.036 30.1259 142.9 29.9019 143.604 29.4539C144.308 29.0059 144.906 28.3979 145.396 27.6299L147.444 29.6459C146.826 30.6699 145.93 31.4912 144.756 32.1099C143.583 32.7072 142.218 33.0059 140.66 33.0059ZM140.66 18.3179C140.063 18.3179 139.508 18.4246 138.996 18.6379C138.506 18.8512 138.079 19.1499 137.716 19.5339C137.375 19.9179 137.108 20.3766 136.916 20.9099C136.724 21.4432 136.628 22.0299 136.628 22.6699V22.8939H144.372V22.5739C144.372 21.2939 144.042 20.2699 143.38 19.5019C142.719 18.7126 141.812 18.3179 140.66 18.3179Z" fill="white"/>
<path d="M155.193 33.0059C153.615 33.0059 152.292 32.7286 151.225 32.1739C150.159 31.6192 149.231 30.8512 148.441 29.8699L150.681 27.8219C151.3 28.5686 151.983 29.1552 152.729 29.5819C153.497 29.9872 154.383 30.1899 155.385 30.1899C156.409 30.1899 157.167 29.9979 157.657 29.6139C158.169 29.2086 158.425 28.6539 158.425 27.9499C158.425 27.4166 158.244 26.9686 157.881 26.6059C157.54 26.2219 156.932 25.9766 156.057 25.8699L154.521 25.6779C152.815 25.4646 151.471 24.9739 150.489 24.2059C149.529 23.4166 149.049 22.2539 149.049 20.7179C149.049 19.9072 149.199 19.1926 149.497 18.5739C149.796 17.9339 150.212 17.4006 150.745 16.9739C151.3 16.5259 151.951 16.1846 152.697 15.9499C153.465 15.7152 154.308 15.5979 155.225 15.5979C156.719 15.5979 157.935 15.8326 158.873 16.3019C159.833 16.7712 160.687 17.4219 161.433 18.2539L159.289 20.3019C158.863 19.7899 158.297 19.3526 157.593 18.9899C156.911 18.6059 156.121 18.4139 155.225 18.4139C154.265 18.4139 153.551 18.6059 153.081 18.9899C152.633 19.3739 152.409 19.8752 152.409 20.4939C152.409 21.1339 152.612 21.6139 153.017 21.9339C153.423 22.2539 154.073 22.4886 154.969 22.6379L156.505 22.8299C158.34 23.1072 159.673 23.6512 160.505 24.4619C161.359 25.2512 161.785 26.3179 161.785 27.6619C161.785 28.4726 161.625 29.2086 161.305 29.8699C161.007 30.5099 160.569 31.0646 159.993 31.5339C159.417 32.0032 158.724 32.3659 157.913 32.6219C157.103 32.8779 156.196 33.0059 155.193 33.0059Z" fill="white"/>
<path d="M165.682 33.0059C164.893 33.0059 164.306 32.8032 163.922 32.3979C163.538 31.9712 163.346 31.4486 163.346 30.8299V30.3499C163.346 29.7312 163.538 29.2192 163.922 28.8139C164.306 28.3872 164.893 28.1739 165.682 28.1739C166.472 28.1739 167.058 28.3872 167.442 28.8139C167.826 29.2192 168.018 29.7312 168.018 30.3499V30.8299C168.018 31.4486 167.826 31.9712 167.442 32.3979C167.058 32.8032 166.472 33.0059 165.682 33.0059Z" fill="white"/>
</svg>
