<svg width="153" height="32" viewBox="0 0 153 32" fill="none" xmlns="http://www.w3.org/2000/svg">
<path d="M4.25086 23.9739V15.5899C4.25086 12.6779 4.21886 10.4699 3.99486 9.06188L9.91486 23.9739H13.6909L19.6429 9.02988C19.4189 10.6939 19.4189 12.0699 19.4189 16.7739V23.9739H23.3869V0.581877H19.3549L11.8029 19.2059L4.25086 0.581877H0.282857V23.9739H4.25086ZM30.6921 24.3899C33.1561 24.3899 35.3001 23.2699 35.9721 21.6379L36.2601 23.9739H39.6841V14.3739C39.6841 9.98988 37.0601 7.68588 32.8041 7.68588C28.5161 7.68588 25.7001 9.92588 25.7001 13.3499H29.0281C29.0281 11.6859 30.3081 10.7259 32.6121 10.7259C34.5961 10.7259 35.8761 11.5899 35.8761 13.7339V14.0859L31.1401 14.4379C27.3961 14.7259 25.2841 16.5499 25.2841 19.4619C25.2841 22.4379 27.3321 24.3899 30.6921 24.3899ZM31.9721 21.4459C30.2121 21.4459 29.2521 20.7419 29.2521 19.3019C29.2521 18.0219 30.1801 17.2219 32.6121 16.9979L35.9081 16.7419V17.5739C35.9081 20.0059 34.3721 21.4459 31.9721 21.4459ZM51.4394 8.10188C50.7994 7.94188 50.2554 7.87788 49.7114 7.87788C47.5994 7.87788 46.0954 8.93388 45.4234 10.5019L45.1994 8.19788H41.5194V23.9739H45.4234V16.2939C45.4234 13.2219 47.1834 11.7179 49.9994 11.7179H51.4394V8.10188ZM56.0179 23.9739V19.7179L58.3219 17.3179L62.4499 23.9739H66.9299L61.0419 14.4379L67.0579 8.16588H62.1619L56.0179 14.7899V0.165876H52.1459V23.9739H56.0179ZM73.6539 24.3899C77.7819 24.3899 80.6619 22.3099 81.3339 18.8539H77.7179C77.2699 20.3579 75.8619 21.1899 73.7179 21.1899C71.1259 21.1899 69.6539 19.7819 69.3659 16.9979L81.2699 16.9659V15.7819C81.2699 10.8539 78.2619 7.68588 73.5259 7.68588C68.8859 7.68588 65.6539 11.1099 65.6539 16.0699C65.6539 20.9659 68.9499 24.3899 73.6539 24.3899ZM73.5579 10.8859C75.8939 10.8859 77.3979 12.3259 77.3979 14.5019H69.4619C69.8459 12.1339 71.2539 10.8859 73.5579 10.8859ZM87.6141 23.9739V11.4299H90.6861V8.16588H87.6141V3.23788H83.7101V8.16588H80.6701V11.4299H83.7101V23.9739H87.6141ZM90.3451 7.10988C90.3451 10.6939 92.4251 12.9659 96.3931 13.8299L100.105 14.6619C102.025 15.0779 102.825 16.0059 102.825 17.5739C102.825 19.5259 101.097 20.7099 98.3771 20.7099C95.7531 20.7099 94.1531 19.5259 94.1211 17.5419H90.0251C90.1211 21.7339 93.3851 24.3899 98.3771 24.3899C103.529 24.3899 106.921 21.5739 106.921 17.2219C106.921 13.7339 104.969 11.6859 100.969 10.8219L97.2891 10.0219C95.3371 9.57388 94.4411 8.64588 94.4411 6.98188C94.4411 5.02988 96.0731 3.81388 98.6011 3.81388C100.905 3.81388 102.345 4.99788 102.441 7.01388H106.537C106.409 2.78988 103.401 0.165876 98.6651 0.165876C93.7371 0.165876 90.3451 3.01388 90.3451 7.10988ZM112.755 24.3899C115.219 24.3899 117.363 23.2699 118.035 21.6379L118.323 23.9739H121.747V14.3739C121.747 9.98988 119.123 7.68588 114.867 7.68588C110.579 7.68588 107.763 9.92588 107.763 13.3499H111.091C111.091 11.6859 112.371 10.7259 114.675 10.7259C116.659 10.7259 117.939 11.5899 117.939 13.7339V14.0859L113.203 14.4379C109.459 14.7259 107.347 16.5499 107.347 19.4619C107.347 22.4379 109.395 24.3899 112.755 24.3899ZM114.035 21.4459C112.275 21.4459 111.315 20.7419 111.315 19.3019C111.315 18.0219 112.243 17.2219 114.675 16.9979L117.971 16.7419V17.5739C117.971 20.0059 116.435 21.4459 114.035 21.4459ZM127.437 23.9739H131.277L137.869 8.16588H133.837L130.957 15.4299C130.285 17.1579 129.709 18.8219 129.485 19.8139C129.293 18.9499 128.749 17.3179 128.077 15.4299L125.325 8.16588H121.165L127.437 23.9739ZM136.737 31.3019C137.601 31.5259 138.561 31.6539 139.649 31.6539C142.241 31.6539 143.905 30.4379 145.089 27.4939L152.833 8.16588H148.801L144.513 19.6859L140.449 8.16588H136.321L142.689 24.6459L142.241 25.8299C141.569 27.6859 140.609 28.0379 139.073 28.0379H136.737V31.3019Z" fill="white"/>
</svg>
