<svg width="145" height="41" viewBox="0 0 145 41" fill="none" xmlns="http://www.w3.org/2000/svg">
<path d="M20.3633 12.9739L4.36328 20.9739V28.9739M20.3633 20.9739L12.3633 24.9739" stroke="white" stroke-width="2" stroke-linejoin="round"/>
<path d="M20.3633 28.9739L4.36328 20.9739V28.9739L20.3633 36.9739V28.9739Z" stroke="white" stroke-width="2" stroke-linejoin="round"/>
<path d="M36.3633 20.9739V12.9739L20.3633 4.97388V12.9739L28.3633 16.9739" stroke="white" stroke-width="2" stroke-linejoin="round"/>
<path d="M20.3633 20.9739L36.3633 12.9739V20.9739L20.3633 28.9739V20.9739Z" stroke="white" stroke-width="2" stroke-linejoin="round"/>
<path d="M48.3633 28.0999V9.6199H62.2233V12.7279H52.2273V17.3199H60.0953V20.2879H52.2273V24.9919H62.6153V28.0999H48.3633Z" fill="white"/>
<path d="M63.69 33.9799V14.0999H67.134L67.386 18.5519L66.91 18.0479C67.078 17.2266 67.386 16.4986 67.834 15.8639C68.3007 15.2292 68.8887 14.7346 69.598 14.3799C70.3074 14.0066 71.1007 13.8199 71.978 13.8199C73.1167 13.8199 74.134 14.1092 75.03 14.6879C75.926 15.2666 76.626 16.0972 77.13 17.1799C77.6527 18.2439 77.914 19.5412 77.914 21.0719C77.914 22.6026 77.6527 23.9186 77.13 25.0199C76.6074 26.1026 75.8887 26.9332 74.974 27.5119C74.078 28.0906 73.0514 28.3799 71.894 28.3799C70.662 28.3799 69.6354 28.0346 68.814 27.3439C68.0114 26.6532 67.4607 25.7852 67.162 24.7399L67.526 24.1519V33.9799H63.69ZM70.774 25.4399C71.8007 25.4399 72.6034 25.0759 73.182 24.3479C73.7794 23.6012 74.078 22.5186 74.078 21.0999C74.078 19.6812 73.7887 18.6079 73.21 17.8799C72.65 17.1332 71.8567 16.7599 70.83 16.7599C70.1767 16.7599 69.598 16.9372 69.094 17.2919C68.6087 17.6279 68.226 18.1226 67.946 18.7759C67.666 19.4106 67.526 20.1852 67.526 21.0999C67.526 21.9772 67.6567 22.7519 67.918 23.4239C68.1794 24.0772 68.5527 24.5812 69.038 24.9359C69.542 25.2719 70.1207 25.4399 70.774 25.4399Z" fill="white"/>
<path d="M81.1767 12.0839C80.3741 12.0839 79.7767 11.9159 79.3847 11.5799C78.9927 11.2252 78.7967 10.7119 78.7967 10.0399C78.7967 9.34923 78.9927 8.8359 79.3847 8.4999C79.7767 8.14523 80.3741 7.9679 81.1767 7.9679C81.9794 7.9679 82.5767 8.14523 82.9687 8.4999C83.3607 8.8359 83.5567 9.34923 83.5567 10.0399C83.5567 10.7119 83.3607 11.2252 82.9687 11.5799C82.5767 11.9159 81.9794 12.0839 81.1767 12.0839ZM83.0807 14.0999V28.0999H79.2447V14.0999H83.0807Z" fill="white"/>
<path d="M91.5031 13.8199C92.7537 13.8199 93.8084 14.0066 94.6671 14.3799C95.5444 14.7346 96.2444 15.2292 96.7671 15.8639C97.3084 16.4799 97.6911 17.1706 97.9151 17.9359L94.3311 19.2239C94.1444 18.3839 93.8271 17.7492 93.3791 17.3199C92.9311 16.8906 92.3244 16.6759 91.5591 16.6759C90.8497 16.6759 90.2431 16.8439 89.7391 17.1799C89.2351 17.4972 88.8524 17.9919 88.5911 18.6639C88.3297 19.3172 88.1991 20.1386 88.1991 21.1279C88.1991 22.1172 88.3297 22.9386 88.5911 23.5919C88.8711 24.2452 89.2631 24.7306 89.7671 25.0479C90.2897 25.3652 90.8964 25.5239 91.5871 25.5239C92.1471 25.5239 92.6231 25.4306 93.0151 25.2439C93.4071 25.0386 93.7244 24.7492 93.9671 24.3759C94.2284 24.0026 94.4057 23.5546 94.4991 23.0319L97.9711 24.1519C97.7657 24.9919 97.3831 25.7292 96.8231 26.3639C96.2631 26.9986 95.5444 27.4932 94.6671 27.8479C93.7897 28.2026 92.7724 28.3799 91.6151 28.3799C90.1777 28.3799 88.9084 28.0906 87.8071 27.5119C86.7057 26.9332 85.8564 26.1026 85.2591 25.0199C84.6617 23.9372 84.3631 22.6306 84.3631 21.0999C84.3631 19.5692 84.6617 18.2626 85.2591 17.1799C85.8564 16.0972 86.6964 15.2666 87.7791 14.6879C88.8617 14.1092 90.1031 13.8199 91.5031 13.8199Z" fill="white"/>
<path d="M106.484 9.6199C109.377 9.6199 111.617 10.4226 113.204 12.0279C114.79 13.6146 115.584 15.8919 115.584 18.8599C115.584 21.8092 114.79 24.0866 113.204 25.6919C111.617 27.2972 109.377 28.0999 106.484 28.0999H99.3438V9.6199H106.484ZM106.288 25.0199C108.042 25.0199 109.358 24.4972 110.236 23.4519C111.132 22.3879 111.58 20.8572 111.58 18.8599C111.58 16.8626 111.132 15.3412 110.236 14.2959C109.358 13.2319 108.042 12.6999 106.288 12.6999H103.208V25.0199H106.288Z" fill="white"/>
<path d="M123.573 28.3799C122.098 28.3799 120.81 28.0906 119.709 27.5119C118.626 26.9332 117.786 26.1026 117.189 25.0199C116.591 23.9372 116.293 22.6306 116.293 21.0999C116.293 19.5692 116.591 18.2626 117.189 17.1799C117.786 16.0972 118.617 15.2666 119.681 14.6879C120.763 14.1092 121.995 13.8199 123.377 13.8199C124.795 13.8199 125.999 14.1092 126.989 14.6879C127.978 15.2479 128.734 16.0226 129.257 17.0119C129.779 17.9826 130.041 19.0932 130.041 20.3439C130.041 20.7172 130.031 21.0719 130.013 21.4079C129.994 21.7439 129.966 22.0426 129.929 22.3039H118.757V19.6439H128.249L126.401 20.3159C126.401 19.1399 126.13 18.2346 125.589 17.5999C125.066 16.9652 124.319 16.6479 123.349 16.6479C122.639 16.6479 122.023 16.8159 121.501 17.1519C120.997 17.4879 120.614 17.9919 120.353 18.6639C120.091 19.3172 119.961 20.1479 119.961 21.1559C119.961 22.1452 120.101 22.9666 120.381 23.6199C120.679 24.2546 121.09 24.7306 121.613 25.0479C122.154 25.3652 122.798 25.5239 123.545 25.5239C124.366 25.5239 125.029 25.3652 125.533 25.0479C126.037 24.7306 126.429 24.2919 126.709 23.7319L129.761 24.9079C129.462 25.6359 129.005 26.2612 128.389 26.7839C127.791 27.3066 127.073 27.7079 126.233 27.9879C125.411 28.2492 124.525 28.3799 123.573 28.3799Z" fill="white"/>
<path d="M140.038 14.0999H144.014L138.694 28.0999H134.27L128.95 14.0999H133.066L136.51 25.1599L140.038 14.0999Z" fill="white"/>
</svg>
