<svg width="24" height="25" viewBox="0 0 24 25" fill="none" xmlns="http://www.w3.org/2000/svg">
<path d="M12 22.2247C6.477 22.2247 2 17.7477 2 12.2247C2 6.70173 6.477 2.22473 12 2.22473C17.523 2.22473 22 6.70173 22 12.2247C22 17.7477 17.523 22.2247 12 22.2247ZM12 20.2247C14.1217 20.2247 16.1566 19.3819 17.6569 17.8816C19.1571 16.3813 20 14.3465 20 12.2247C20 10.103 19.1571 8.06817 17.6569 6.56788C16.1566 5.06759 14.1217 4.22473 12 4.22473C9.87827 4.22473 7.84344 5.06759 6.34315 6.56788C4.84285 8.06817 4 10.103 4 12.2247C4 14.3465 4.84285 16.3813 6.34315 17.8816C7.84344 19.3819 9.87827 20.2247 12 20.2247ZM11 15.2247H13V17.2247H11V15.2247ZM13 13.5797V14.2247H11V12.7247C11 12.4595 11.1054 12.2052 11.2929 12.0176C11.4804 11.8301 11.7348 11.7247 12 11.7247C12.2841 11.7247 12.5623 11.644 12.8023 11.4921C13.0423 11.3401 13.2343 11.1231 13.3558 10.8663C13.4773 10.6095 13.5234 10.3235 13.4887 10.0416C13.454 9.75962 13.34 9.49332 13.1598 9.27364C12.9797 9.05397 12.7409 8.88996 12.4712 8.8007C12.2015 8.71144 11.912 8.7006 11.6364 8.76944C11.3608 8.83827 11.1104 8.98396 10.9144 9.18955C10.7183 9.39513 10.5847 9.65216 10.529 9.93073L8.567 9.53773C8.68863 8.92982 8.96951 8.3651 9.38092 7.90132C9.79233 7.43753 10.3195 7.09131 10.9086 6.89805C11.4977 6.70479 12.1275 6.67142 12.7337 6.80135C13.3399 6.93128 13.9007 7.21984 14.3588 7.63756C14.8169 8.05527 15.1559 8.58714 15.3411 9.17879C15.5263 9.77045 15.5511 10.4007 15.4129 11.005C15.2747 11.6094 14.9785 12.1662 14.5545 12.6186C14.1306 13.071 13.5941 13.4026 13 13.5797Z" fill="white"/>
</svg>
