<svg width="78" height="77" viewBox="0 0 78 77" fill="none" xmlns="http://www.w3.org/2000/svg">
<rect x="0.861206" y="0.766113" width="76.2777" height="75.641" rx="37.8205" fill="url(#paint0_linear_69_895)"/>
<rect x="1.36121" y="1.26611" width="75.2777" height="74.641" rx="37.3205" stroke="white" stroke-opacity="0.2"/>
<g clip-path="url(#clip0_69_895)">
<path d="M34.9141 48.4522C34.2094 49.9929 31.8579 53.5866 25.25 53.5866C24.9185 53.5866 24.6006 53.4549 24.3662 53.2205C24.1317 52.9861 24 52.6681 24 52.3366C24 45.7288 27.5938 43.3772 29.1344 42.6726C29.2838 42.6044 29.4451 42.5664 29.6092 42.5606C29.7733 42.5548 29.9369 42.5814 30.0907 42.6389C30.2445 42.6964 30.3855 42.7835 30.5056 42.8955C30.6257 43.0074 30.7225 43.1419 30.7907 43.2913C30.8588 43.4407 30.8968 43.602 30.9026 43.7661C30.9084 43.9302 30.8818 44.0938 30.8243 44.2476C30.7669 44.4014 30.6797 44.5423 30.5677 44.6624C30.4558 44.7825 30.3213 44.8794 30.1719 44.9476C29.1672 45.4054 26.95 46.8788 26.5594 51.0272C30.7079 50.6366 32.1844 48.4194 32.6391 47.4147C32.7072 47.2654 32.8041 47.1309 32.9242 47.0189C33.0443 46.907 33.1853 46.8198 33.3391 46.7623C33.4929 46.7049 33.6565 46.6783 33.8206 46.6841C33.9846 46.6898 34.146 46.7279 34.2954 46.796C34.4447 46.8641 34.5792 46.961 34.6912 47.0811C34.8031 47.2012 34.8903 47.3422 34.9478 47.496C35.0052 47.6498 35.0318 47.8134 35.026 47.9774C35.0203 48.1415 34.9822 48.3029 34.9141 48.4522ZM53.9766 25.9522C53.9396 25.3427 53.6807 24.7679 53.249 24.3361C52.8172 23.9043 52.2423 23.6455 51.6329 23.6085C49.6672 23.4913 44.6438 23.671 40.4766 27.8382L32.75 35.571C32.634 35.6872 32.4962 35.7795 32.3445 35.8425C32.1928 35.9054 32.0302 35.9379 31.866 35.9381C31.5343 35.9384 31.2161 35.8069 30.9813 35.5725C30.7465 35.3382 30.6145 35.0202 30.6142 34.6885C30.6139 34.3568 30.7454 34.0386 30.9797 33.8038L35.1297 29.6522C35.2166 29.5648 35.2757 29.4537 35.2996 29.3328C35.3235 29.2119 35.3111 29.0867 35.2641 28.9728C35.217 28.8589 35.1373 28.7615 35.035 28.6928C34.9327 28.6241 34.8123 28.5871 34.6891 28.5866H30.6172C30.2879 28.5849 29.9615 28.6486 29.6571 28.7742C29.3526 28.8997 29.0762 29.0845 28.8438 29.3179L23.4844 34.6804C23.1557 35.0088 22.9251 35.4224 22.8184 35.8746C22.7117 36.3268 22.7331 36.7999 22.8803 37.2406C23.0275 37.6813 23.2946 38.0723 23.6516 38.3697C24.0087 38.6671 24.4415 38.8591 24.9016 38.9241L30.9125 39.7632L37.8204 46.671L38.6594 52.685C38.7239 53.1452 38.9159 53.578 39.2135 53.9348C39.5112 54.2915 39.9027 54.5579 40.3438 54.7038C40.6007 54.7896 40.8698 54.8334 41.1407 54.8335C41.4687 54.8341 41.7935 54.7698 42.0966 54.6443C42.3996 54.5188 42.6748 54.3346 42.9063 54.1022L48.2688 48.7429C48.5014 48.51 48.6858 48.2334 48.8113 47.9291C48.9368 47.6247 49.0009 47.2986 49 46.9694V42.8975C48.9998 42.774 48.963 42.6533 48.8942 42.5506C48.8254 42.448 48.7278 42.3681 48.6136 42.3209C48.4994 42.2738 48.3738 42.2615 48.2526 42.2857C48.1314 42.3099 48.0202 42.3695 47.9329 42.4569L43.7813 46.6069C43.6599 46.7285 43.5147 46.8237 43.3548 46.8866C43.195 46.9495 43.0239 46.9788 42.8522 46.9727C42.6805 46.9665 42.5119 46.925 42.3569 46.8508C42.202 46.7766 42.064 46.6712 41.9516 46.5413C41.7466 46.2933 41.6424 45.9771 41.6597 45.6558C41.6771 45.3345 41.8148 45.0314 42.0454 44.8069L49.7438 37.1085C53.9141 32.9397 54.0938 27.9163 53.9766 25.9491V25.9522Z" fill="white"/>
</g>
<defs>
<linearGradient id="paint0_linear_69_895" x1="39" y1="0.766113" x2="39" y2="76.4071" gradientUnits="userSpaceOnUse">
<stop stop-color="#5B1CD4"/>
<stop offset="1" stop-color="#310F73"/>
</linearGradient>
<clipPath id="clip0_69_895">
<rect width="40" height="40" fill="white" transform="translate(19.0001 18.5866)"/>
</clipPath>
</defs>
</svg>
