<svg width="27" height="26" viewBox="0 0 27 26" fill="none" xmlns="http://www.w3.org/2000/svg">
<g clip-path="url(#clip0_69_631)">
<path d="M18.9174 1.30896L20.3461 3.98786L23.025 5.4166L20.3461 6.84535L18.9174 9.52425L17.4886 6.84535L14.8098 5.4166L17.4886 3.98786L18.9174 1.30896ZM9.16737 4.69438L12.0562 10.111L17.4729 12.9999L12.0562 15.8888L9.16737 21.3055L6.27848 15.8888L0.861816 12.9999L6.27848 10.111L9.16737 4.69438ZM21.8062 17.6944L20.0008 14.309L18.1952 17.6944L14.8098 19.4999L18.1952 21.3055L20.0008 24.6909L21.8062 21.3055L25.1917 19.4999L21.8062 17.6944Z" fill="white"/>
<path d="M18.9174 1.30896L20.3461 3.98786L23.025 5.4166L20.3461 6.84535L18.9174 9.52425L17.4886 6.84535L14.8098 5.4166L17.4886 3.98786L18.9174 1.30896ZM9.16737 4.69438L12.0562 10.111L17.4729 12.9999L12.0562 15.8888L9.16737 21.3055L6.27848 15.8888L0.861816 12.9999L6.27848 10.111L9.16737 4.69438ZM21.8062 17.6944L20.0008 14.309L18.1952 17.6944L14.8098 19.4999L18.1952 21.3055L20.0008 24.6909L21.8062 21.3055L25.1917 19.4999L21.8062 17.6944Z" fill="white"/>
</g>
<defs>
<clipPath id="clip0_69_631">
<rect width="26" height="26" fill="white" transform="translate(0.5)"/>
</clipPath>
</defs>
</svg>
